<?xml version="1.0" encoding="iso-8859-1"?>
<!-- Uploaded to: SVG Repo, www.svgrepo.com, Generator: SVG Repo Mixer Tools -->
<svg fill="#000000" height="800px" width="800px" version="1.1" id="Layer_1" xmlns="http://www.w3.org/2000/svg" xmlns:xlink="http://www.w3.org/1999/xlink" 
	 viewBox="0 0 222.261 222.261" xml:space="preserve">
<g>
	<g>
		<g>
			<path d="M50.221,119.213L50.221,119.213l57.568-0.001h8.191h56.467h8.179h39.658l-0.043-4.084
				c-0.272-24.898-9.422-40.361-23.875-40.361c-8.676,0-15.419,5.608-19.5,15.452c-5.551-17.423-17.062-27.573-32.659-27.573
				c-15.273,0-26.644,9.713-32.323,26.476c-5.679-16.763-17.051-26.476-32.323-26.476c-16.052,0-27.779,10.747-33.131,29.116
				c-3.996-10.815-11-16.994-20.128-16.994c-14.453,0-23.603,15.463-23.876,40.361l-0.044,4.084h40.759H50.221z M196.366,82.849
				c10.397,0,14.836,13.944,15.657,28.283H180.71C181.534,96.793,185.973,82.849,196.366,82.849z M144.208,70.727
				c22.937,0,27.352,27.158,28.133,40.404h-56.274C117.227,90.898,125.091,70.727,144.208,70.727z M79.561,70.727
				c22.937,0,27.352,27.158,28.133,40.404H51.421C52.581,90.898,60.444,70.727,79.561,70.727z M10.646,111.132
				c0.821-14.339,5.26-28.283,15.657-28.283c10.397,0,14.836,13.944,15.657,28.283H10.646z"/>
			<path d="M218.221,139.414h-59.16c-1.806-6.952-8.078-12.121-15.588-12.121c-7.51,0-13.781,5.17-15.588,12.121h-33.47
				c-1.806-6.952-8.078-12.121-15.588-12.121c-7.51,0-13.781,5.17-15.588,12.121H4.04c-2.234,0-4.04,1.807-4.04,4.04
				c0,2.233,1.807,4.04,4.04,4.04h59.199c1.806,6.952,8.078,12.121,15.588,12.121s13.781-5.17,15.588-12.121h33.47
				c1.806,6.952,8.078,12.121,15.588,12.121s13.781-5.17,15.588-12.121h59.16c2.233,0,4.04-1.807,4.04-4.04
				C222.261,141.222,220.455,139.414,218.221,139.414z M78.827,135.374c2.977,0,5.554,1.637,6.956,4.04H71.871
				C73.273,137.011,75.851,135.374,78.827,135.374z M78.827,151.536c-2.977,0-5.554-1.637-6.956-4.04h13.913
				C84.382,149.898,81.804,151.536,78.827,151.536z M143.474,135.374c2.977,0,5.554,1.637,6.956,4.04h-13.913
				C137.92,137.011,140.497,135.374,143.474,135.374z M143.474,151.536c-2.977,0-5.554-1.637-6.956-4.04h13.913
				C149.028,149.898,146.451,151.536,143.474,151.536z"/>
		</g>
	</g>
</g>
</svg>