<?xml version="1.0" encoding="iso-8859-1"?>
<!-- Uploaded to: SVG Repo, www.svgrepo.com, Generator: SVG Repo Mixer Tools -->
<svg fill="#000000" height="800px" width="800px" version="1.1" id="Layer_1" xmlns="http://www.w3.org/2000/svg" xmlns:xlink="http://www.w3.org/1999/xlink" 
	 viewBox="0 0 512.081 512.081" xml:space="preserve">
<g>
	<g>
		<path d="M403.347,245.734c26.667-59.947,51.307-146.453,33.173-193.067c-25.707-65.92-80.747-55.04-129.28-45.44
			c-17.28,3.413-35.2,6.933-51.2,6.933s-33.92-3.52-51.2-6.933c-48.533-9.6-103.573-20.373-129.28,45.547
			c-18.133,46.507,6.507,133.013,33.173,192.96c0.747,1.707,1.067,3.52,0.853,5.44c-2.56,25.067-3.84,50.24-3.733,75.52
			c0,68.8,10.453,185.387,49.387,185.387c33.387,0,37.973-44.267,42.88-91.2c6.933-67.52,15.253-115.307,57.92-115.307
			c42.027,0,50.133,47.36,57.067,114.133c4.907,47.467,9.493,92.267,43.733,92.267c39.04,0,49.493-116.587,49.493-185.387
			c0-25.173-1.173-50.347-3.733-75.52C402.28,249.254,402.6,247.441,403.347,245.734z M356.84,490.641
			c-14.933,0-18.987-38.933-22.507-73.173c-6.187-59.413-13.76-133.333-78.293-133.333c-65.173,0-72.96,74.56-79.147,134.4
			c-3.52,33.813-7.467,72.107-21.12,72.107c-10.24-4.16-28.587-62.4-28.587-164.16c-0.107-24.427,1.173-48.96,3.627-73.28
			c0.533-5.547-0.32-11.2-2.56-16.213c-32-71.68-45.44-144.32-32.853-176.533c11.733-29.973,29.547-39.147,54.827-39.147
			c14.4,0,31.04,2.987,50.453,6.827c14.72,2.88,29.867,5.76,44.587,6.827c-1.92,2.987-6.613,8-16.96,16.32
			c-6.293,5.013-10.773,8.64-9.387,15.573c0.96,3.84,3.733,7.04,7.573,8.32c0.533,0.213,1.707,0.64,3.2,1.28
			c5.973,2.347,16.747,6.507,28.587,9.92c-10.133,5.12-20.8,9.173-31.787,12.267c-5.653,1.6-8.96,7.467-7.467,13.12
			c0.747,2.667,2.453,4.907,4.8,6.293c10.88,6.187,22.293,11.2,34.347,14.827c-12.053,22.187-13.973,54.08-14.293,58.56
			c-0.32,5.867,4.16,10.88,10.027,11.2h0.107h0.533c5.653,0,10.347-4.48,10.667-10.133c0.96-17.92,6.827-49.707,18.667-58.347
			c5.12-3.733,5.973-11.307,1.387-16c-1.92-2.027-4.693-3.093-7.467-3.2c-6.507-0.32-13.653-2.24-20.267-4.587
			c13.013-5.547,27.307-13.547,34.027-23.573c3.733-5.547,1.493-13.333-5.12-15.893c-0.853-0.32-1.707-0.533-2.56-0.64
			c-10.773-1.387-24-5.44-34.027-9.067c9.067-7.893,16.427-16.533,17.707-26.133c14.507-1.067,29.333-3.947,43.84-6.827
			c53.333-10.56,86.933-14.613,105.28,32.32c12.587,32.213-0.96,104.853-32.747,176.64c-2.24,5.12-3.2,10.667-2.56,16.32
			c2.453,24.32,3.627,48.747,3.627,73.28C384.894,428.241,366.547,486.587,356.84,490.641z"/>
	</g>
</g>
</svg>